<svg xmlns="http://www.w3.org/2000/svg" viewBox="0 0 1200 320" width="1200" height="320" preserveAspectRatio="xMidYMid meet" role="img" aria-label="git log --stat — system metrics">
  <!-- Section title -->
  <text x="0" y="38" font-family="ui-monospace, 'SF Mono', Menlo, Consolas, monospace" font-size="16" fill="#A3FF12">&gt;</text>
  <text x="22" y="38" font-family="ui-monospace, 'SF Mono', Menlo, Consolas, monospace" font-size="16" fill="#F5F5F5">git log --stat</text>
  <line x1="180" y1="32" x2="1200" y2="32" stroke="#202020" stroke-width="1"/>

  <!-- ========== CARD 1: COMMITS (0-383) ========== -->
  <rect x="0.5" y="64.5" width="383" height="240" fill="#0D0D0D" stroke="#202020" stroke-width="1"/>

  <!-- header -->
  <text x="24" y="100" font-family="ui-monospace, 'SF Mono', Menlo, Consolas, monospace" font-size="13" fill="#A3FF12">⎚</text>
  <text x="46" y="100" font-family="ui-monospace, 'SF Mono', Menlo, Consolas, monospace" font-size="13" fill="#F5F5F5" letter-spacing="2">COMMITS</text>
  <text x="360" y="100" font-family="ui-monospace, 'SF Mono', Menlo, Consolas, monospace" font-size="13" fill="#4A4A4A" text-anchor="end">▎▎</text>

  <!-- rows -->
  <text x="24" y="146" font-family="ui-monospace, 'SF Mono', Menlo, Consolas, monospace" font-size="13" fill="#8B8B8B">Total Contributions</text>
  <text x="360" y="146" font-family="ui-monospace, 'SF Mono', Menlo, Consolas, monospace" font-size="13" fill="#F5F5F5" text-anchor="end" font-weight="600">574</text>

  <text x="24" y="174" font-family="ui-monospace, 'SF Mono', Menlo, Consolas, monospace" font-size="13" fill="#8B8B8B">Public Repos</text>
  <text x="360" y="174" font-family="ui-monospace, 'SF Mono', Menlo, Consolas, monospace" font-size="13" fill="#F5F5F5" text-anchor="end" font-weight="600">46</text>

  <text x="24" y="202" font-family="ui-monospace, 'SF Mono', Menlo, Consolas, monospace" font-size="13" fill="#8B8B8B">PRs (last year)</text>
  <text x="360" y="202" font-family="ui-monospace, 'SF Mono', Menlo, Consolas, monospace" font-size="13" fill="#F5F5F5" text-anchor="end" font-weight="600">6</text>

  <text x="24" y="230" font-family="ui-monospace, 'SF Mono', Menlo, Consolas, monospace" font-size="13" fill="#8B8B8B">Contributed to</text>
  <text x="360" y="230" font-family="ui-monospace, 'SF Mono', Menlo, Consolas, monospace" font-size="13" fill="#F5F5F5" text-anchor="end" font-weight="600">7</text>

  <text x="24" y="258" font-family="ui-monospace, 'SF Mono', Menlo, Consolas, monospace" font-size="13" fill="#8B8B8B">Followers</text>
  <text x="360" y="258" font-family="ui-monospace, 'SF Mono', Menlo, Consolas, monospace" font-size="13" fill="#F5F5F5" text-anchor="end" font-weight="600">16</text>

  <text x="24" y="286" font-family="ui-monospace, 'SF Mono', Menlo, Consolas, monospace" font-size="11" fill="#4A4A4A">// updated 2026-06-25</text>

  <!-- ========== CARD 2: STREAK (408-791) ========== -->
  <rect x="408.5" y="64.5" width="383" height="240" fill="#0D0D0D" stroke="#202020" stroke-width="1"/>

  <text x="432" y="100" font-family="ui-monospace, 'SF Mono', Menlo, Consolas, monospace" font-size="13" fill="#A3FF12">⚡</text>
  <text x="454" y="100" font-family="ui-monospace, 'SF Mono', Menlo, Consolas, monospace" font-size="13" fill="#F5F5F5" letter-spacing="2">ACTIVITY</text>

  <!-- big number -->
  <text x="432" y="178" font-family="ui-monospace, 'SF Mono', Menlo, Consolas, monospace" font-size="64" font-weight="700" fill="#A3FF12" letter-spacing="-2">574</text>
  <text x="572" y="178" font-family="ui-monospace, 'SF Mono', Menlo, Consolas, monospace" font-size="14" fill="#F5F5F5">contributions</text>
  <text x="572" y="196" font-family="ui-monospace, 'SF Mono', Menlo, Consolas, monospace" font-size="14" fill="#8B8B8B">last 12 months</text>

  <!-- mini histogram (24 bars representing weekly pattern over a year, sampled) -->
  <g transform="translate(432, 220)">
    <rect x="0"   y="42" width="12" height="18" fill="#A3FF12" opacity="0.5"/>
    <rect x="14"  y="36" width="12" height="24" fill="#A3FF12" opacity="0.6"/>
    <rect x="28"  y="30" width="12" height="30" fill="#A3FF12" opacity="0.7"/>
    <rect x="42"  y="24" width="12" height="36" fill="#A3FF12" opacity="0.7"/>
    <rect x="56"  y="18" width="12" height="42" fill="#A3FF12" opacity="0.8"/>
    <rect x="70"  y="12" width="12" height="48" fill="#A3FF12" opacity="0.85"/>
    <rect x="84"  y="6"  width="12" height="54" fill="#A3FF12" opacity="0.9"/>
    <rect x="98"  y="0"  width="12" height="60" fill="#A3FF12"/>
    <rect x="112" y="8"  width="12" height="52" fill="#A3FF12" opacity="0.85"/>
    <rect x="126" y="16" width="12" height="44" fill="#A3FF12" opacity="0.8"/>
    <rect x="140" y="22" width="12" height="38" fill="#A3FF12" opacity="0.75"/>
    <rect x="154" y="30" width="12" height="30" fill="#A3FF12" opacity="0.7"/>
    <rect x="168" y="14" width="12" height="46" fill="#A3FF12" opacity="0.8"/>
    <rect x="182" y="20" width="12" height="40" fill="#A3FF12" opacity="0.75"/>
    <rect x="196" y="6"  width="12" height="54" fill="#A3FF12" opacity="0.9"/>
    <rect x="210" y="12" width="12" height="48" fill="#A3FF12" opacity="0.85"/>
    <rect x="224" y="0"  width="12" height="60" fill="#A3FF12"/>
    <rect x="238" y="4"  width="12" height="56" fill="#A3FF12" opacity="0.95"/>
    <rect x="252" y="2"  width="12" height="58" fill="#A3FF12"/>
    <rect x="266" y="0"  width="12" height="60" fill="#A3FF12"/>
    <rect x="280" y="6"  width="12" height="54" fill="#A3FF12" opacity="0.9"/>
    <rect x="294" y="0"  width="12" height="60" fill="#A3FF12"/>
    <rect x="308" y="4"  width="12" height="56" fill="#A3FF12" opacity="0.95"/>
    <rect x="322" y="0"  width="12" height="60" fill="#A3FF12"/>
  </g>

  <!-- ========== CARD 3: TOP LANGUAGES (816-1199) ========== -->
  <rect x="816.5" y="64.5" width="383" height="240" fill="#0D0D0D" stroke="#202020" stroke-width="1"/>

  <text x="840" y="100" font-family="ui-monospace, 'SF Mono', Menlo, Consolas, monospace" font-size="13" fill="#A3FF12">&lt;/&gt;</text>
  <text x="870" y="100" font-family="ui-monospace, 'SF Mono', Menlo, Consolas, monospace" font-size="13" fill="#F5F5F5" letter-spacing="2">TOP LANGUAGES</text>

  <!-- TypeScript -->
  <text x="840" y="146" font-family="ui-monospace, 'SF Mono', Menlo, Consolas, monospace" font-size="13" fill="#F5F5F5">TypeScript</text>
  <rect x="940" y="138" width="200" height="6" fill="#202020"/>
  <rect x="940" y="138" width="155" height="6" fill="#A3FF12"/>
  <text x="1175" y="146" font-family="ui-monospace, 'SF Mono', Menlo, Consolas, monospace" font-size="12" fill="#8B8B8B" text-anchor="end">14%</text>

  <!-- JavaScript -->
  <text x="840" y="178" font-family="ui-monospace, 'SF Mono', Menlo, Consolas, monospace" font-size="13" fill="#F5F5F5">JavaScript</text>
  <rect x="940" y="170" width="200" height="6" fill="#202020"/>
  <rect x="940" y="170" width="142" height="6" fill="#A3FF12"/>
  <text x="1175" y="178" font-family="ui-monospace, 'SF Mono', Menlo, Consolas, monospace" font-size="12" fill="#8B8B8B" text-anchor="end">13%</text>

  <!-- Python -->
  <text x="840" y="210" font-family="ui-monospace, 'SF Mono', Menlo, Consolas, monospace" font-size="13" fill="#F5F5F5">Python</text>
  <rect x="940" y="202" width="200" height="6" fill="#202020"/>
  <rect x="940" y="202" width="119" height="6" fill="#A3FF12"/>
  <text x="1175" y="210" font-family="ui-monospace, 'SF Mono', Menlo, Consolas, monospace" font-size="12" fill="#8B8B8B" text-anchor="end">11%</text>

  <!-- Dart -->
  <text x="840" y="242" font-family="ui-monospace, 'SF Mono', Menlo, Consolas, monospace" font-size="13" fill="#F5F5F5">Dart</text>
  <rect x="940" y="234" width="200" height="6" fill="#202020"/>
  <rect x="940" y="234" width="79" height="6" fill="#A3FF12"/>
  <text x="1175" y="242" font-family="ui-monospace, 'SF Mono', Menlo, Consolas, monospace" font-size="12" fill="#8B8B8B" text-anchor="end">7%</text>

  <!-- Other -->
  <text x="840" y="274" font-family="ui-monospace, 'SF Mono', Menlo, Consolas, monospace" font-size="13" fill="#8B8B8B">Other</text>
  <rect x="940" y="266" width="200" height="6" fill="#202020"/>
  <rect x="940" y="266" width="60" height="6" fill="#8B8B8B"/>
  <text x="1175" y="274" font-family="ui-monospace, 'SF Mono', Menlo, Consolas, monospace" font-size="12" fill="#8B8B8B" text-anchor="end">5%</text>
</svg>
